<?xml version="1.0" encoding="UTF-8"?>
<svg version="1.1" xmlns="http://www.w3.org/2000/svg" width="225" height="225">
<path d="M0 0 C74.25 0 148.5 0 225 0 C225 74.25 225 148.5 225 225 C150.75 225 76.5 225 0 225 C0 150.75 0 76.5 0 0 Z " fill="#2563EA" transform="translate(0,0)"/>
<path d="M0 0 C7.55004149 4.02625376 13.64467249 11.37502697 19.60205078 17.39624023 C21.38645113 19.19906939 23.17889796 20.9935954 24.97265625 22.78710938 C26.115059 23.9344224 27.25700294 25.08219249 28.3984375 26.23046875 C29.19838638 27.03208687 29.19838638 27.03208687 30.01449585 27.84989929 C33.9003419 31.78587227 36.29024526 34.30130962 36.375 39.9375 C36.31299495 43.48212178 36.26607442 44.63636496 34.125 47.5625 C30.37351901 50.10026656 27.44391736 50.79949791 22.91894531 50.75390625 C16.55490832 49.11020048 12.19906577 43.18645585 7.875 38.5 C6.81487475 37.38965488 5.75239221 36.28155538 4.6875 35.17578125 C2.09724851 32.47593287 -0.45957653 29.74688449 -3 27 C-6.95209432 30.23823435 -10.57068174 33.5285637 -14.015625 37.3046875 C-15.05783203 38.42617187 -15.05783203 38.42617187 -16.12109375 39.5703125 C-17.54497379 41.11176061 -18.94872227 42.67204154 -20.33203125 44.25 C-23.33959983 47.42927139 -25.51304134 49.695715 -29.88598633 50.59057617 C-36.69583193 50.75056348 -36.69583193 50.75056348 -39.80249023 48.96264648 C-42.46809295 46.2679115 -43.40136183 43.28253137 -43.75 39.625 C-43.44473415 35.98883849 -42.67522887 34.15736478 -40.21484375 31.48046875 C-39.58143066 30.79082031 -38.94801758 30.10117188 -38.29541016 29.390625 C-34.05925837 24.97875537 -29.77100241 20.62355832 -25.43774414 16.30737305 C-23.8017169 14.67675253 -22.17116368 13.04079267 -20.54101562 11.40429688 C-19.49250835 10.35644968 -18.4436913 9.30891235 -17.39453125 8.26171875 C-16.91216507 7.77732834 -16.42979889 7.29293793 -15.93281555 6.79386902 C-10.94747971 1.84287432 -7.40090482 -1.59829329 0 0 Z " fill="#FAFBFE" transform="translate(116,108)"/>
<path d="M0 0 C2.88820122 2.05682145 5.40878212 4.58533655 8 7 C8.50381195 7.4663385 9.0076239 7.932677 9.52670288 8.41314697 C13.10811403 11.73599377 16.63868954 15.1064428 20.13916016 18.5144043 C21.38448271 19.71773684 22.63951792 20.91109468 23.90380859 22.09448242 C34.37259699 31.90711129 34.37259699 31.90711129 35.89208984 36.97583008 C36.00866316 41.52756355 35.45873574 43.40847233 32.625 47.0625 C28.57762982 50.04984466 26.41943304 50.37323961 21.50390625 49.7578125 C14.36859092 47.59829429 9.35831774 40.39378503 4.69921875 34.8984375 C2.08255217 31.97498932 -0.77485297 29.24654041 -4 27 C-6.24362573 26.7715451 -6.24362573 26.7715451 -8.125 29 C-8.55941406 29.45375 -8.99382812 29.9075 -9.44140625 30.375 C-11.27759145 32.28941866 -13.17103311 34.14023367 -15.0625 36 C-17.24494493 38.17022975 -19.1851006 40.24119169 -21.0625 42.6875 C-24.0861871 46.29641686 -27.3405841 49.41351284 -32.0546875 50.453125 C-35.73108846 50.64734996 -37.84173635 50.10101935 -40.9375 48.125 C-44.41769646 44.53934304 -44.54888359 41.54137058 -44.48501587 36.67678833 C-43.58675563 31.71931646 -40.22771258 28.96104335 -36.66796875 25.62109375 C-35.92041824 24.88294937 -35.17286774 24.14480499 -34.40266418 23.3842926 C-32.02011051 21.04426984 -29.60452216 18.74184496 -27.1875 16.4375 C-25.57269829 14.85572943 -23.96004227 13.2717652 -22.34960938 11.68554688 C-19.39915388 8.80289632 -16.44808162 5.92134899 -13.46166992 3.07592773 C-12.86432541 2.50430405 -12.2669809 1.93268036 -11.65153503 1.34373474 C-7.85093124 -1.74854199 -4.50083591 -1.18054712 0 0 Z " fill="#FBFCFE" transform="translate(117,67)"/>
<path d="M0 0 C0.66 0.33 1.32 0.66 2 1 C0.8758824 2.29243468 -0.24932592 3.58392075 -1.375 4.875 C-2.00148438 5.59429687 -2.62796875 6.31359375 -3.2734375 7.0546875 C-4.47426834 8.4076598 -5.7208345 9.7208345 -7 11 C-7.99 10.67 -8.98 10.34 -10 10 C-6.7 6.7 -3.4 3.4 0 0 Z " fill="#3873EC" transform="translate(107,97)"/>
</svg>
